<svg version="1.1" id="Layer_1" xmlns="http://www.w3.org/2000/svg" xmlns:xlink="http://www.w3.org/1999/xlink" x="0px" y="0px"
	 width="100%" viewBox="0 0 280 280" enable-background="new 0 0 280 280" xml:space="preserve">
<path fill="#000000" opacity="1.000000" stroke="none" 
	d="
M154.000000,281.000000 
	C102.666664,281.000000 51.833332,281.000000 1.000000,281.000000 
	C1.000000,187.666672 1.000000,94.333336 1.000000,1.000000 
	C94.333336,1.000000 187.666672,1.000000 281.000000,1.000000 
	C281.000000,94.333336 281.000000,187.666672 281.000000,281.000000 
	C238.833328,281.000000 196.666672,281.000000 154.000000,281.000000 
M198.924164,129.328842 
	C197.798553,131.164841 196.695053,133.014847 195.543228,134.834244 
	C191.957733,140.497879 192.619934,145.500961 197.332275,148.191116 
	C202.358261,151.060318 207.090851,149.245743 210.288223,143.426437 
	C213.241180,138.051941 216.386887,132.783630 219.423523,127.454788 
	C224.911758,117.823700 230.511688,108.252861 235.804779,98.515427 
	C238.441757,93.664276 237.147659,89.015343 233.155167,86.752113 
	C229.061630,84.431602 223.972687,85.723610 221.509262,89.964012 
	C214.032669,102.833809 206.658051,115.762863 198.924164,129.328842 
M51.865822,163.198944 
	C49.880962,166.639206 47.656578,169.966660 45.969982,173.547409 
	C43.702091,178.362350 45.166389,183.016296 49.221729,185.282501 
	C53.120529,187.461243 57.798141,185.887375 60.618328,181.258041 
	C63.381008,176.723114 65.987915,172.092865 68.639961,167.491058 
	C74.850594,156.714417 81.099266,145.959167 87.225914,135.134918 
	C89.939278,130.341080 88.935844,125.565544 85.017204,123.284996 
	C80.502838,120.657753 75.151688,121.948540 72.506454,126.565826 
	C65.660873,138.514877 58.935860,150.532974 51.865822,163.198944 
M120.556435,108.972923 
	C115.263672,118.172073 109.915039,127.339706 104.700661,136.583069 
	C101.906364,141.536438 102.846565,145.617386 107.100853,148.227203 
	C111.654091,151.020416 116.188484,149.763046 119.283142,144.691910 
	C121.961060,140.303665 124.501411,135.830978 127.075645,131.380035 
	C133.303818,120.611275 139.596634,109.878677 145.699722,99.039352 
	C148.571899,93.938225 147.434647,89.117104 143.245834,86.889557 
	C138.262329,84.239403 133.218170,86.040146 130.351852,91.354401 
	C127.279144,97.051323 124.088593,102.684692 120.556435,108.972923 
M143.537247,159.984879 
	C141.180923,163.975845 138.716522,167.907745 136.494827,171.972321 
	C133.520554,177.413773 134.598358,182.594788 139.013428,185.070465 
	C143.447769,187.556931 148.430695,185.743317 151.461853,180.409348 
	C160.135468,165.146179 168.787109,149.870377 177.394211,134.569626 
	C179.864258,130.178650 178.606552,125.164780 174.677933,123.030556 
	C170.283279,120.643150 165.523605,122.061699 162.853714,126.676239 
	C156.546967,137.576569 150.293777,148.507874 143.537247,159.984879 
z"/>
<path fill="#C2F34E" opacity="1.000000" stroke="none" 
	d="
M199.083939,128.998840 
	C206.658051,115.762863 214.032669,102.833809 221.509262,89.964012 
	C223.972687,85.723610 229.061630,84.431602 233.155167,86.752113 
	C237.147659,89.015343 238.441757,93.664276 235.804779,98.515427 
	C230.511688,108.252861 224.911758,117.823700 219.423523,127.454788 
	C216.386887,132.783630 213.241180,138.051941 210.288223,143.426437 
	C207.090851,149.245743 202.358261,151.060318 197.332275,148.191116 
	C192.619934,145.500961 191.957733,140.497879 195.543228,134.834244 
	C196.695053,133.014847 197.798553,131.164841 199.083939,128.998840 
z"/>
<path fill="#C2F34E" opacity="1.000000" stroke="none" 
	d="
M52.014259,162.861237 
	C58.935860,150.532974 65.660873,138.514877 72.506454,126.565826 
	C75.151688,121.948540 80.502838,120.657753 85.017204,123.284996 
	C88.935844,125.565544 89.939278,130.341080 87.225914,135.134918 
	C81.099266,145.959167 74.850594,156.714417 68.639961,167.491058 
	C65.987915,172.092865 63.381008,176.723114 60.618328,181.258041 
	C57.798141,185.887375 53.120529,187.461243 49.221729,185.282501 
	C45.166389,183.016296 43.702091,178.362350 45.969982,173.547409 
	C47.656578,169.966660 49.880962,166.639206 52.014259,162.861237 
z"/>
<path fill="#C2F34E" opacity="1.000000" stroke="none" 
	d="
M120.752945,108.659363 
	C124.088593,102.684692 127.279144,97.051323 130.351852,91.354401 
	C133.218170,86.040146 138.262329,84.239403 143.245834,86.889557 
	C147.434647,89.117104 148.571899,93.938225 145.699722,99.039352 
	C139.596634,109.878677 133.303818,120.611275 127.075645,131.380035 
	C124.501411,135.830978 121.961060,140.303665 119.283142,144.691910 
	C116.188484,149.763046 111.654091,151.020416 107.100853,148.227203 
	C102.846565,145.617386 101.906364,141.536438 104.700661,136.583069 
	C109.915039,127.339706 115.263672,118.172073 120.752945,108.659363 
z"/>
<path fill="#C2F34E" opacity="1.000000" stroke="none" 
	d="
M143.778076,159.705765 
	C150.293777,148.507874 156.546967,137.576569 162.853714,126.676239 
	C165.523605,122.061699 170.283279,120.643150 174.677933,123.030556 
	C178.606552,125.164780 179.864258,130.178650 177.394211,134.569626 
	C168.787109,149.870377 160.135468,165.146179 151.461853,180.409348 
	C148.430695,185.743317 143.447769,187.556931 139.013428,185.070465 
	C134.598358,182.594788 133.520554,177.413773 136.494827,171.972321 
	C138.716522,167.907745 141.180923,163.975845 143.778076,159.705765 
z"/>
</svg>