<?xml version="1.0" encoding="UTF-8"?>
<svg version="1.1" xmlns="http://www.w3.org/2000/svg" width="2000" height="1500">
<path d="M0 0 C660 0 1320 0 2000 0 C2000 495 2000 990 2000 1500 C1340 1500 680 1500 0 1500 C0 1005 0 510 0 0 Z " fill="#FEFEFE" transform="translate(0,0)"/>
<path d="M0 0 C26.24375261 -0.8357883 53.96806818 10.1270117 75.1171875 25.2578125 C76.73560547 26.13373047 76.73560547 26.13373047 78.38671875 27.02734375 C80.73720401 29.0413472 81.10411873 30.18239937 81.64160156 33.28393555 C81.82445598 37.29309895 81.79617777 41.24839565 81.6796875 45.2578125 C81.65428869 46.75812567 81.62964155 48.25845173 81.60571289 49.75878906 C81.31482381 64.02465299 80.07451625 78.12441372 78.1171875 92.2578125 C77.94609467 93.49905884 77.94609467 93.49905884 77.77154541 94.76538086 C71.67548753 138.67948267 66.74718584 173.28186758 34.1171875 205.2578125 C32.78268201 206.58997264 31.44905644 207.92301638 30.1171875 209.2578125 C38.82941162 224.77121972 38.82941162 224.77121972 49.1171875 239.2578125 C50.02597656 240.48177734 50.02597656 240.48177734 50.953125 241.73046875 C51.83871094 242.85775391 51.83871094 242.85775391 52.7421875 244.0078125 C53.25007812 244.66265625 53.75796875 245.3175 54.28125 245.9921875 C56.1430992 247.54963312 56.1430992 247.54963312 59.0078125 247.1171875 C68.92480923 244.37630901 77.15342869 237.51207335 85.1171875 231.2578125 C89.26285816 232.91809323 92.18750939 235.91533152 95.3671875 238.9453125 C99.11270851 242.51121755 102.82232856 245.81067261 106.9921875 248.8828125 C109.0956748 250.73388132 110.0043032 251.59992766 110.48046875 254.375 C110.27988766 257.09398814 109.72948254 259.60095331 109.1171875 262.2578125 C108.89482422 263.87816406 108.89482422 263.87816406 108.66796875 265.53125 C105.60402376 285.56640805 94.19504174 309.45003031 78.1171875 322.2578125 C74.89957283 324.3309402 71.68030205 325.873095 68.1171875 327.2578125 C67.37339844 327.57492187 66.62960937 327.89203125 65.86328125 328.21875 C50.746602 333.79478397 33.70409807 329.79523412 19.234375 324.12890625 C3.97450758 316.49897254 -2.98643813 300.80664536 -8.1328125 285.5078125 C-13.9951702 267.37798043 -19.16278045 247.44197987 -18.8828125 228.2578125 C-20.25493896 228.09962036 -20.25493896 228.09962036 -21.65478516 227.93823242 C-39.42282106 225.88413067 -57.17405878 223.78217048 -74.8828125 221.2578125 C-74.65207031 221.81984375 -74.42132813 222.381875 -74.18359375 222.9609375 C-66.09181902 243.81404866 -63.27705519 266.27595653 -59.8828125 288.2578125 C-59.69912109 289.44552246 -59.51542969 290.63323242 -59.32617188 291.85693359 C-58.87229186 294.84286736 -58.43404213 297.83031965 -58.0078125 300.8203125 C-57.88776855 301.63806152 -57.76772461 302.45581055 -57.64404297 303.29833984 C-56.83335319 309.29894783 -56.76747597 315.20834052 -56.8828125 321.2578125 C-58.61131595 322.05092617 -60.34064604 322.8422384 -62.0703125 323.6328125 C-63.03324219 324.07367187 -63.99617188 324.51453125 -64.98828125 324.96875 C-82.72233723 332.86650773 -102.64685086 332.12009605 -120.8828125 326.2578125 C-121.88699219 325.95746094 -122.89117187 325.65710938 -123.92578125 325.34765625 C-130.90950782 323.0722813 -136.95265939 319.57520438 -142.8828125 315.2578125 C-143.5015625 314.85691406 -144.1203125 314.45601562 -144.7578125 314.04296875 C-146.71285951 310.9406893 -145.56390914 307.66733784 -144.8828125 304.2578125 C-144.69799316 303.3095459 -144.51317383 302.3612793 -144.32275391 301.38427734 C-138.05032155 270.51087653 -138.05032155 270.51087653 -132.00537109 256.17724609 C-131.72129395 255.4961377 -131.4372168 254.8150293 -131.14453125 254.11328125 C-130.87987061 253.51539795 -130.61520996 252.91751465 -130.3425293 252.30151367 C-129.25713945 247.47634194 -131.35242956 242.46293898 -132.69921875 237.84375 C-135.60166427 227.35645148 -137.14537659 216.61990467 -138.8203125 205.8828125 C-139.07935364 204.24342712 -139.07935364 204.24342712 -139.34362793 202.57092285 C-142.59011638 181.98691588 -145.32435285 161.3679013 -147.61712646 140.65722656 C-147.88017184 138.28166037 -148.14617693 135.90643974 -148.41259766 133.53125 C-151.67822529 104.29010372 -154.32273986 74.97816841 -156.66674805 45.64941406 C-156.82107318 43.94120053 -157.01085468 42.2360396 -157.22412109 40.53417969 C-157.69757371 36.52653775 -157.4465215 34.14888022 -155.26171875 30.6953125 C-142.89855514 16.23856504 -124.29028135 6.01416697 -105.2578125 4.3828125 C-89.90243558 3.57463477 -77.10506217 5.99691699 -63.8828125 14.2578125 C-64.48353469 20.18187433 -65.30261878 25.9717753 -66.44921875 31.8125 C-66.60377029 32.61578735 -66.75832184 33.41907471 -66.91755676 34.2467041 C-67.25050095 35.97568901 -67.58497081 37.7043807 -67.9208374 39.43280029 C-68.82583904 44.09177358 -69.71867206 48.75308461 -70.61328125 53.4140625 C-70.79900696 54.38008392 -70.98473267 55.34610535 -71.17608643 56.34140015 C-73.06284363 66.16627388 -74.90691001 75.99896837 -76.73703003 85.83453369 C-77.08051104 87.68013273 -77.42451391 89.52563473 -77.76907349 91.37103271 C-79.56410807 100.98577528 -81.33521851 110.5993637 -82.8828125 120.2578125 C-80.9028125 120.9178125 -78.9228125 121.5778125 -76.8828125 122.2578125 C-76.71002777 121.70080154 -76.53724304 121.14379059 -76.35922241 120.56990051 C-74.65184615 115.23771807 -72.61083416 110.27271125 -70.109375 105.26953125 C-69.74954529 104.53738907 -69.38971558 103.80524689 -69.01898193 103.05091858 C-68.25105991 101.489213 -67.48074121 99.92868393 -66.70819092 98.3692627 C-64.65464944 94.22250181 -62.62037471 90.0663151 -60.5859375 85.91015625 C-60.17922821 85.08001007 -59.77251892 84.24986389 -59.35348511 83.39456177 C-55.89028321 76.30958148 -52.54889784 69.17453888 -49.2578125 62.0078125 C-44.43905574 51.53181833 -39.48167997 41.13061852 -34.4453125 30.7578125 C-34.10965271 30.06602905 -33.77399292 29.37424561 -33.42816162 28.66149902 C-33.10108215 27.98784302 -32.77400269 27.31418701 -32.43701172 26.62011719 C-32.11657394 25.96003662 -31.79613617 25.29995605 -31.46598816 24.61987305 C-30.83599305 23.32867471 -30.20204348 22.03939741 -29.56391907 20.75219727 C-28.08142178 17.75931904 -26.67567323 14.7754706 -25.35668945 11.70410156 C-21.9219749 3.95012217 -21.9219749 3.95012217 -19.06518555 2.046875 C-16.97241933 1.3877853 -15.13377642 1.1388342 -12.9453125 1.0078125 C-11.82878296 0.88092041 -11.82878296 0.88092041 -10.68969727 0.75146484 C-7.1344851 0.38676962 -3.56582676 0.23676516 0 0 Z " fill="#2D2D2D" transform="translate(420.8828125,596.7421875)"/>
<path d="M0 0 C1.4535791 0.80993408 1.4535791 0.80993408 2.93652344 1.63623047 C3.66387695 2.04760254 4.39123047 2.45897461 5.140625 2.8828125 C5.38612387 35.44759799 5.11768533 67.88051545 3.27990723 100.39788818 C3.14309276 102.83878544 3.0115387 105.27990678 2.88183594 107.72119141 C2.64479904 112.17149117 2.39588728 116.62102395 2.140625 121.0703125 C2.03451904 122.94662354 2.03451904 122.94662354 1.92626953 124.86083984 C1.53103072 131.28584888 0.9681901 137.66921896 0.22265625 144.0625 C-0.66730785 151.70863377 -1.35002814 159.36282609 -1.97265625 167.03515625 C-2.06845474 168.21431107 -2.16425323 169.39346588 -2.26295471 170.60835266 C-2.46276057 173.07366048 -2.66232507 175.53898787 -2.86166382 178.0043335 C-4.47007299 197.78974413 -6.21606651 217.5432696 -8.546875 237.2578125 C-8.64924469 238.12783905 -8.75161438 238.9978656 -8.85708618 239.89425659 C-9.90086951 248.70061871 -11.03682805 257.47393601 -12.4909668 266.22387695 C-12.98971185 269.82350078 -13.00160625 273.25591555 -12.859375 276.8828125 C-10.14895192 273.63329371 -7.91230361 270.43026401 -5.90625 266.70703125 C-5.37386719 265.72307373 -4.84148437 264.73911621 -4.29296875 263.7253418 C-3.73738281 262.68418213 -3.18179687 261.64302246 -2.609375 260.5703125 C-2.02800781 259.4872583 -1.44664063 258.4042041 -0.84765625 257.28833008 C3.23207514 249.65757413 7.22607124 241.9967342 11.00634766 234.21337891 C11.84278821 232.49476903 12.68437954 230.77866373 13.52880859 229.06396484 C19.81124085 216.30459157 25.89973222 203.46822321 31.63076782 190.45172119 C32.21781609 189.12059254 32.80858417 187.79109781 33.40316772 186.46331787 C34.23110767 184.60968079 35.04173372 182.74833963 35.8515625 180.88671875 C36.31868652 179.82267822 36.78581055 178.7586377 37.26708984 177.66235352 C38.16972653 174.79021304 38.32308012 173.60942394 37.140625 170.8828125 C35.40347566 169.11673879 35.40347566 169.11673879 33.203125 167.4453125 C23.08856387 158.75963382 16.33895977 147.53507419 10.140625 135.8828125 C9.7178125 135.21378906 9.295 134.54476562 8.859375 133.85546875 C7.76036356 130.83916017 8.27353932 128.95358317 9.140625 125.8828125 C10.50308422 123.49779478 11.83806081 121.3914303 13.453125 119.1953125 C14.12081909 118.28120605 14.12081909 118.28120605 14.80200195 117.34863281 C29.64358138 97.66958831 53.18619357 84.39520689 77.04296875 79.2578125 C81.58551039 78.74813041 84.08280746 79.07370801 87.765625 81.890625 C105.94960881 100.90619343 118.90148897 130.80148949 121.015625 156.9453125 C120.69654192 165.22270305 116.49208171 171.00714554 111.8359375 177.50585938 C109.94046444 180.16345236 108.1019982 182.85593904 106.265625 185.5546875 C96.69357938 199.56007756 86.72747744 213.03151258 75.68359375 225.91015625 C73.14283099 228.88023376 70.63703316 231.87546982 68.140625 234.8828125 C71.6677992 242.85161347 78.56606232 249.61430292 84.828125 255.54296875 C86.140625 256.8828125 86.140625 256.8828125 87.140625 258.8828125 C91.16834579 258.26692316 94.12894858 256.10959897 97.390625 253.8203125 C98.24853638 253.22391968 98.24853638 253.22391968 99.1237793 252.61547852 C103.96042671 249.17261474 108.1614941 245.29471897 112.140625 240.8828125 C117.14879406 242.44005509 120.61546721 245.46284082 124.578125 248.7578125 C125.86654048 249.82007682 127.15687977 250.88001247 128.44921875 251.9375 C129.06724365 252.44692139 129.68526855 252.95634277 130.32202148 253.48120117 C132.33953856 255.09414212 132.33953856 255.09414212 135.578125 256.92578125 C138.140625 258.8828125 138.140625 258.8828125 138.83203125 261.37890625 C138.51906642 268.52019469 137.78043519 275.54879717 136.828125 282.6328125 C136.71090088 283.50736084 136.59367676 284.38190918 136.47290039 285.28295898 C134.23733952 300.36480209 127.3639656 318.18366954 115.140625 327.8828125 C101.55178226 336.42609907 87.69897666 339.19489617 71.83105469 335.70410156 C57.43978586 332.15901832 47.84288084 325.55269973 40.140625 312.8828125 C27.140625 289.75563648 27.140625 289.75563648 27.140625 280.8828125 C22.80886229 284.44736928 18.81529843 288.13921085 15.1171875 292.36328125 C9.59647808 298.55229006 3.8106616 304.45230243 -2.046875 310.3203125 C-2.59507904 310.87052063 -3.14328308 311.42072876 -3.70809937 311.98760986 C-11.6503746 319.93698198 -19.66064503 327.37809601 -28.859375 333.8828125 C-29.55933594 334.46933594 -30.25929688 335.05585937 -30.98046875 335.66015625 C-32.859375 336.8828125 -32.859375 336.8828125 -36.609375 336.5703125 C-50.97620092 332.72967587 -66.50004615 323.38063505 -76.859375 312.8828125 C-89.45342557 287.69471137 -69.34536357 227.16980909 -62.61206055 200.92089844 C-62.36367432 199.91833008 -62.11528809 198.91576172 -61.859375 197.8828125 C-61.63918701 197.02034912 -61.41899902 196.15788574 -61.19213867 195.26928711 C-60.81444695 192.56060286 -61.14453231 190.8340563 -61.8984375 188.21484375 C-62.1464209 187.33199707 -62.3944043 186.44915039 -62.64990234 185.53955078 C-62.92527832 184.60095215 -63.2006543 183.66235352 -63.484375 182.6953125 C-63.90323975 181.21393799 -63.90323975 181.21393799 -64.33056641 179.70263672 C-65.16371519 176.75979381 -66.01004537 173.82102004 -66.859375 170.8828125 C-77.70333854 133.01849237 -85.45542325 94.81288642 -92.06812286 56.01145935 C-92.42114837 53.9495565 -92.77857456 51.88845967 -93.137146 49.82751465 C-93.8118095 45.9436372 -94.46379303 42.05613946 -95.11328125 38.16796875 C-95.42352486 36.39689507 -95.42352486 36.39689507 -95.74003601 34.59004211 C-95.91807266 33.50079941 -96.09610931 32.4115567 -96.27954102 31.28930664 C-96.44051773 30.3378627 -96.60149445 29.38641876 -96.76734924 28.40614319 C-96.90614273 24.60044924 -95.51040146 22.67536645 -93.15234375 19.8046875 C-71.19978158 -2.84025604 -29.16208863 -16.35381566 0 0 Z " fill="#2D2D2D" transform="translate(1084.859375,590.1171875)"/>
<path d="M0 0 C6.05893353 4.13689568 11.56559921 8.80603103 16.8125 13.9375 C17.31346191 14.31116699 17.81442383 14.68483398 18.33056641 15.06982422 C20.61237048 17.945574 20.92681308 21.19420475 21.4765625 24.73046875 C21.60269928 25.5227739 21.72883606 26.31507904 21.85879517 27.13139343 C23.30905843 37.14269845 23.26716399 47.15540469 23.1875 57.25 C23.18201645 58.77429123 23.18201645 58.77429123 23.17642212 60.32937622 C23.09419522 79.97470386 21.90800944 99.41083249 19.8125 118.9375 C19.68439941 120.14519043 19.55629883 121.35288086 19.42431641 122.59716797 C18.28629412 133.04763409 16.92263467 143.39493101 14.6953125 153.67578125 C13.91784795 157.30486815 13.26398079 160.95093482 12.6171875 164.60546875 C12.29500244 166.41180786 12.29500244 166.41180786 11.96630859 168.25463867 C11.53860362 170.66387302 11.1168116 173.07416646 10.70166016 175.4855957 C8.80389428 186.06659314 6.74118725 192.54212596 -2.1875 198.9375 C-13.03544049 206.1798213 -24.37650201 212.424876 -36.1875 217.9375 C-37.33476563 218.48148438 -38.48203125 219.02546875 -39.6640625 219.5859375 C-46.11711506 222.50835441 -52.64339247 224.84058613 -59.4375 226.8125 C-60.1579248 227.02801514 -60.87834961 227.24353027 -61.62060547 227.46557617 C-70.29348472 229.84750852 -78.53748662 229.22173324 -87.25 227.375 C-88.09143555 227.20081543 -88.93287109 227.02663086 -89.79980469 226.84716797 C-147.72301046 214.40198954 -147.72301046 214.40198954 -166.1875 195.9375 C-166.70974845 193.68040047 -167.12192732 191.3975781 -167.484375 189.109375 C-167.59854263 188.39289291 -167.71271027 187.67641083 -167.83033752 186.93821716 C-168.21003125 184.52282902 -168.5747849 182.10549302 -168.9375 179.6875 C-169.06522797 178.85280182 -169.19295593 178.01810364 -169.32455444 177.15811157 C-172.93956589 153.41010385 -175.43839852 129.5063929 -177.90719604 105.61634827 C-178.08931967 103.87580357 -178.27878924 102.13600626 -178.47683716 100.39720154 C-179.15963281 94.19580912 -179.36232359 88.06083483 -179.390625 81.82421875 C-179.39777527 80.78366837 -179.40492554 79.74311798 -179.41229248 78.67103577 C-179.61112398 41.18589151 -179.61112398 41.18589151 -178.1875 24.6875 C-178.11176758 23.56174561 -178.03603516 22.43599121 -177.95800781 21.27612305 C-177.37466759 15.83831447 -176.54210155 12.66402659 -172.41015625 8.9375 C-171.02688764 7.90417004 -169.6207633 6.9002872 -168.1875 5.9375 C-167.25808594 5.26203125 -166.32867188 4.5865625 -165.37109375 3.890625 C-109.89803191 -30.51372061 -55.90176457 -36.97972675 0 0 Z " fill="#2D2D2D" transform="translate(725.1875,698.0625)"/>
<path d="M0 0 C1.13824219 0.11214844 2.27648437 0.22429688 3.44921875 0.33984375 C33.38256956 4.42031048 66.75902307 17.98672914 89.375 38.1875 C89.91688965 38.66227783 90.4587793 39.13705566 91.01708984 39.6262207 C99.50473659 47.60901067 98.7124388 63.09072816 99.06506348 74.01580811 C99.98329926 110.8180651 97.81128807 148.3576486 90.50097656 184.51171875 C90.10439259 186.48149646 89.71787412 188.45330043 89.33496094 190.42578125 C88.69794066 193.70473307 88.05221078 196.98158327 87.39715576 200.25695801 C87.00815286 202.20908658 86.62631329 204.16263825 86.24462891 206.11621094 C85.99890137 207.32051758 85.75317383 208.52482422 85.5 209.765625 C85.2834375 210.84618164 85.066875 211.92673828 84.84375 213.04003906 C81.32030059 225.40065845 67.28113969 231.49243302 56.87890625 237.32421875 C32.7631532 250.6292986 10.88602923 260.32557937 -16.9375 254.0625 C-17.98071915 253.83116364 -17.98071915 253.83116364 -19.04501343 253.59515381 C-73.74207927 241.37338229 -73.74207927 241.37338229 -89 225 C-90.93901416 221.75703196 -91.45985924 218.83086024 -91.9296875 215.1015625 C-92.08308594 213.91643066 -92.23648438 212.73129883 -92.39453125 211.51025391 C-92.55308594 210.22812012 -92.71164062 208.94598633 -92.875 207.625 C-93.04747755 206.26862831 -93.22066737 204.91234703 -93.39453125 203.55615234 C-93.66399943 201.45309673 -93.93285216 199.34998008 -94.19891357 197.24649048 C-94.76966778 192.74284464 -95.37532431 188.24549334 -96.0078125 183.75 C-96.97393213 176.8691234 -97.87463795 169.98147929 -98.73706055 163.08685303 C-99.0079421 160.93696652 -99.2861588 158.78809854 -99.56445312 156.63916016 C-103.99120226 121.99629031 -105.07940979 86.51546524 -102.0625 51.6875 C-101.96183228 50.16225708 -101.96183228 50.16225708 -101.85913086 48.60620117 C-101.22665953 43.17514556 -99.87655623 40.35250094 -95.83203125 36.609375 C-91.95886739 33.55625582 -87.97538742 30.8790585 -83.625 28.5625 C-82.94566406 28.19253906 -82.26632812 27.82257812 -81.56640625 27.44140625 C-79.38868135 26.27152137 -77.19855044 25.13022709 -75 24 C-74.27522461 23.6272998 -73.55044922 23.25459961 -72.80371094 22.87060547 C-22.23749792 -2.76875793 -22.23749792 -2.76875793 0 0 Z " fill="#2D2D2D" transform="translate(877,670)"/>
<path d="M0 0 C14.66367696 9.30323916 29.7137115 16.5597329 46.07763672 22.39453125 C47.13007568 22.77593262 48.18251465 23.15733398 49.2668457 23.55029297 C50.20149658 23.87827881 51.13614746 24.20626465 52.09912109 24.54418945 C56.24696208 26.52502482 58.22289472 28.69131365 59.79418945 32.99169922 C61.51212871 40.92064964 61.78916306 48.59173062 61.79418945 56.67919922 C61.80643555 57.71238281 61.81868164 58.74556641 61.83129883 59.81005859 C61.85413802 71.83108648 59.72324738 80.5715336 51.66918945 89.80419922 C51.18901367 90.36292725 50.70883789 90.92165527 50.21411133 91.49731445 C45.29491065 97.18096401 40.18831539 102.68925271 35.05786133 108.18164062 C32.80634937 110.60209174 30.58333723 113.04838661 28.35668945 115.49169922 C15.95487969 129.01052571 3.28361852 142.23016605 -9.70654297 155.18530273 C-12.12091025 157.59420821 -14.52975067 160.00855126 -16.93823242 162.42333984 C-18.48934342 163.97379155 -20.04076378 165.52393384 -21.5925293 167.07373047 C-22.30398605 167.78721146 -23.01544281 168.50069244 -23.74845886 169.23579407 C-27.15431216 172.62559327 -30.55063565 175.8378994 -34.39331055 178.74169922 C-27.55367354 178.36951637 -21.89827447 177.2023494 -15.64331055 174.42919922 C-14.4356604 173.907854 -14.4356604 173.907854 -13.20361328 173.37597656 C-4.85241976 169.67197944 3.08494799 165.23784336 11.05981445 160.79638672 C16.57519612 157.73423745 22.16001948 154.82857758 27.79418945 151.99169922 C28.63780029 151.56131348 29.48141113 151.13092773 30.35058594 150.6875 C31.51956421 150.10331299 31.51956421 150.10331299 32.7121582 149.50732422 C33.39431396 149.16475586 34.07646973 148.8221875 34.77929688 148.46923828 C36.60668945 147.74169922 36.60668945 147.74169922 39.60668945 147.74169922 C41.29248047 149.97314453 41.29248047 149.97314453 43.1105957 153.06982422 C43.76866211 154.17970703 44.42672852 155.28958984 45.10473633 156.43310547 C45.79301528 157.61922917 46.48116502 158.80542786 47.16918945 159.99169922 C47.86026384 161.16285268 48.55230997 162.33343333 49.24536133 163.50341797 C54.61658747 172.62237893 54.61658747 172.62237893 56.60668945 176.74169922 C32.57007603 207.1426169 -6.43596479 238.73996547 -45.9597168 244.23779297 C-55.07159764 244.6218186 -62.00278696 242.09899082 -68.80395508 236.03320312 C-70.8674311 234.11886225 -72.88946837 232.16541492 -74.8996582 230.1953125 C-77.22645794 227.9308853 -79.62017605 225.74262378 -82.01831055 223.55419922 C-83.36022461 222.32830078 -83.36022461 222.32830078 -84.72924805 221.07763672 C-87.29407094 218.82871576 -89.93395338 216.75009759 -92.64331055 214.67919922 C-98.05567833 210.43217378 -103.18047586 205.38020328 -105.39331055 198.74169922 C-105.46135722 197.1022382 -105.46992429 195.45999346 -105.44335938 193.81933594 C-105.43055939 192.8091893 -105.4177594 191.79904266 -105.40457153 190.75828552 C-105.38667572 189.65710892 -105.36877991 188.55593231 -105.3503418 187.42138672 C-105.32434873 185.04501916 -105.29991889 182.66863412 -105.27685547 180.29223633 C-105.26431732 179.04006317 -105.25177917 177.78789001 -105.23886108 176.49777222 C-105.02151876 150.97560188 -105.99917642 126.03413248 -109.39331055 100.74169922 C-109.49232666 99.9903772 -109.59134277 99.23905518 -109.69335938 98.46496582 C-111.58307861 84.17502291 -113.69823562 70.0702183 -117.84545898 56.23242188 C-119.66853568 50.08522567 -121.04954323 44.68785362 -118.49487305 38.60107422 C-103.1705636 12.78193467 -68.69227129 -5.60261024 -40.70922852 -12.75439453 C-24.05819384 -16.37739006 -13.41917395 -8.58325531 0 0 Z " fill="#2D2D2D" transform="translate(1480.393310546875,683.25830078125)"/>
<path d="M0 0 C1.42283149 0.80240786 2.84741096 1.60172164 4.2734375 2.3984375 C5.39552612 3.02685547 5.39552612 3.02685547 6.5402832 3.66796875 C17.08605148 9.26338952 28.58820266 12.73589337 39.90429688 16.43164062 C40.70359116 16.69844635 41.50288544 16.96525208 42.32640076 17.24014282 C43.84365012 17.7460021 45.36511265 18.23944472 46.89100647 18.71859741 C51.8838105 20.39320616 51.8838105 20.39320616 53.7331543 22.79125977 C54.32629567 25.10459155 54.53222873 27.10646912 54.5390625 29.49609375 C54.54583008 30.81323364 54.54583008 30.81323364 54.55273438 32.15698242 C54.54306641 33.0822876 54.53339844 34.00759277 54.5234375 34.9609375 C54.51376953 35.91395752 54.50410156 36.86697754 54.49414062 37.84887695 C54.09595642 61.12473463 42.86619797 81.38371342 26.98828125 98.04296875 C25.20880785 99.7954921 25.20880785 99.7954921 24.2734375 101.8984375 C19.56097835 100.53674355 15.65887503 98.51374408 11.5859375 95.8359375 C10.97435791 95.43673096 10.36277832 95.03752441 9.73266602 94.6262207 C-5.91761148 84.23825468 -23.15524267 69.65177686 -33.7265625 53.8984375 C-33.7265625 53.2384375 -33.7265625 52.5784375 -33.7265625 51.8984375 C-35.7065625 52.5584375 -37.6865625 53.2184375 -39.7265625 53.8984375 C-39.89758875 57.96076586 -40.06255068 62.02332037 -40.2265625 66.0859375 C-40.27425781 67.21708984 -40.32195312 68.34824219 -40.37109375 69.51367188 C-40.68218156 77.31308778 -40.78474465 85.09314082 -40.7265625 92.8984375 C-40.21609375 93.18340088 -39.705625 93.46836426 -39.1796875 93.76196289 C-24.41158793 102.03465165 -9.99623751 110.79469675 4.2734375 119.8984375 C4.90572266 120.3001416 5.53800781 120.7018457 6.18945312 121.11572266 C20.79780193 130.43991599 34.8945936 140.74616146 47.2734375 152.8984375 C48.02753906 153.4346875 48.78164062 153.9709375 49.55859375 154.5234375 C52.45596861 158.53620268 51.85932491 162.96071591 51.7734375 167.7734375 C51.76352783 168.83175781 51.75361816 169.89007812 51.7434082 170.98046875 C51.42190653 184.98087804 50.73934332 205.36729091 39.9609375 215.7109375 C29.97464039 225.16173752 18.8631648 233.47255424 7.18115234 240.7109375 C5.91372522 241.49987601 4.65597315 242.3045832 3.40869141 243.125 C-16.13170749 255.80759337 -40.35291364 248.30874437 -61.7265625 243.8984375 C-70.68412683 241.95624325 -79.59156577 239.80199766 -88.49316406 237.61962891 C-91.58338676 236.93037205 -94.64874612 236.45342527 -97.78125 236.00390625 C-102.5262526 235.15611854 -104.87428587 233.97232874 -107.7265625 229.8984375 C-109.03240448 227.27492022 -110.03156307 224.60742776 -110.9765625 221.8359375 C-111.23179688 221.12888672 -111.48703125 220.42183594 -111.75 219.69335938 C-115.98417979 207.82651337 -117.0709557 192.60416987 -111.81396484 180.85961914 C-109.52241776 176.16647261 -107.16375642 171.51777015 -104.7265625 166.8984375 C-99.02915723 166.72617553 -94.06232335 167.21715449 -88.5390625 168.5859375 C-87.79857666 168.76745361 -87.05809082 168.94896973 -86.29516602 169.13598633 C-70.9017446 173.04534764 -57.60207572 180.14202512 -44.58203125 189.07421875 C-42.97678589 190.17189575 -42.97678589 190.17189575 -41.33911133 191.29174805 C-39.20613898 192.76203688 -37.08446293 194.24887056 -34.9753418 195.75317383 C-33.993479 196.43275146 -33.01161621 197.1123291 -32 197.8125 C-31.12778809 198.4307666 -30.25557617 199.0490332 -29.35693359 199.68603516 C-24.22854125 202.04983657 -19.88210084 199.61695028 -14.7265625 197.8984375 C-14.3965625 188.6584375 -14.0665625 179.4184375 -13.7265625 169.8984375 C-17.3565625 168.9084375 -20.9865625 167.9184375 -24.7265625 166.8984375 C-52.13323428 157.83414044 -80.60481513 146.52590827 -103.7265625 128.8984375 C-104.24782715 128.50350098 -104.7690918 128.10856445 -105.30615234 127.70166016 C-111.66645762 122.68654087 -113.13766827 118.14904959 -114.05932617 110.38037109 C-115.41468531 96.83797333 -116.16459329 83.32132309 -116.36514282 69.71047974 C-116.39751235 67.76707603 -116.44302816 65.82384266 -116.50228882 63.881073 C-117.03564135 45.06972703 -117.03564135 45.06972703 -109.8503418 36.984375 C-109.14949463 36.29601562 -108.44864746 35.60765625 -107.7265625 34.8984375 C-107.19780518 34.31835938 -106.66904785 33.73828125 -106.12426758 33.140625 C-81.45547759 6.83626507 -34.78082313 -19.82666382 0 0 Z " fill="#2D2D2D" transform="translate(1676.7265625,677.1015625)"/>
<path d="M0 0 C1.71331386 2.0982191 1.70380302 3.12485734 1.60650635 5.80229187 C1.56523621 7.00056107 1.56523621 7.00056107 1.52313232 8.22303772 C1.27061572 11.9897437 0.8838705 15.72114478 0.40631104 19.46562195 C0.25617805 20.69817467 0.25617805 20.69817467 0.10301208 21.95562744 C-0.22348619 24.63013127 -0.55708045 27.30369976 -0.89056396 29.9773407 C-1.35554304 33.76737287 -1.81660765 37.55787699 -2.27728271 41.34843445 C-2.451782 42.77884064 -2.451782 42.77884064 -2.62980652 44.23814392 C-3.64333916 52.5860957 -4.56152448 60.94278545 -5.46115112 69.30363464 C-7.84477509 91.33749736 -10.80599969 113.17246689 -15.14056396 134.9148407 C-15.28418365 135.63728973 -15.42780334 136.35973877 -15.57577515 137.1040802 C-17.63066624 147.37149185 -20.0219455 157.52704638 -22.64056396 167.6648407 C-21.78301514 167.26055847 -20.92546631 166.85627625 -20.04193115 166.43974304 C-16.85696498 164.94735643 -13.66610073 163.46941177 -10.47015381 162.0007782 C-9.08828686 161.3622447 -7.7090143 160.71806517 -6.3324585 160.06816101 C-4.35317477 159.13488664 -2.36544689 158.22231892 -0.37493896 157.3132782 C0.81905518 156.75817566 2.01304932 156.20307312 3.2432251 155.63114929 C6.35943604 154.6648407 6.35943604 154.6648407 8.56231689 155.19950867 C12.539411 158.44234508 14.94926925 163.12890711 17.67193604 167.4148407 C18.33000244 168.4048407 18.98806885 169.3948407 19.66607666 170.4148407 C20.28289307 171.37905945 20.89970947 172.3432782 21.53521729 173.3367157 C22.10151855 174.214245 22.66781982 175.09177429 23.25128174 175.99589539 C24.89199591 179.94748986 24.08633124 182.83024366 22.54669189 186.71611023 C22.2257959 187.32051941 21.9048999 187.92492859 21.57427979 188.5476532 C21.03214844 189.57692932 21.03214844 189.57692932 20.47906494 190.6269989 C19.89391113 191.69760559 19.89391113 191.69760559 19.29693604 192.7898407 C18.89136475 193.53902771 18.48579346 194.28821472 18.06793213 195.06010437 C8.61836953 212.27983989 -4.87406345 232.08615954 -24.59368896 238.27812195 C-39.54141416 241.10221507 -53.28709953 234.45949145 -65.64056396 226.6648407 C-69.51499032 223.87064474 -73.1072849 220.87638077 -76.64056396 217.6648407 C-77.29540771 217.09120789 -77.95025146 216.51757507 -78.62493896 215.92655945 C-85.93083153 209.15406169 -91.64349294 200.62922278 -92.26947021 190.5632782 C-92.50057908 178.54354805 -86.8653281 167.27699804 -82.57806396 156.2898407 C-81.27080478 152.92142206 -79.97150539 149.55089575 -78.69538879 146.17054749 C-77.90610053 144.08091857 -77.0991201 141.9978564 -76.27165222 139.92304993 C-73.91889069 133.70942984 -73.18920317 129.16488458 -74.64056396 122.6648407 C-74.86389404 121.57372986 -75.08722412 120.48261902 -75.31732178 119.35844421 C-75.70162354 117.84141907 -75.70162354 117.84141907 -76.09368896 116.29374695 C-76.38372803 115.14068054 -76.67376709 113.98761414 -76.97259521 112.79960632 C-77.2755249 111.62075867 -77.57845459 110.44191101 -77.89056396 109.2273407 C-78.1780249 108.08329773 -78.46548584 106.93925476 -78.76165771 105.76054382 C-80.40155624 99.29046382 -82.13951575 92.85445702 -83.94915771 86.4304657 C-87.02816999 75.46129265 -89.80469049 64.41602838 -92.57196045 53.36479187 C-93.46328307 49.81160302 -94.36339531 46.2607074 -95.26361084 42.70976257 C-95.83380945 40.43841298 -96.40349042 38.16693336 -96.97259521 35.89530945 C-97.24126907 34.84014633 -97.50994293 33.78498322 -97.78675842 32.69784546 C-98.03088974 31.71524246 -98.27502106 30.73263947 -98.52655029 29.72026062 C-98.74241287 28.86188095 -98.95827545 28.00350128 -99.18067932 27.11911011 C-99.66499209 24.53447498 -99.85935256 22.28689036 -99.64056396 19.6648407 C-97.64056396 17.2898407 -97.64056396 17.2898407 -94.64056396 14.6648407 C-94.11720459 14.15179382 -93.59384521 13.63874695 -93.05462646 13.1101532 C-70.40966953 -8.34816844 -26.58892692 -21.63917644 0 0 Z " fill="#2E2E2E" transform="translate(1327.6405639648438,688.3351593017578)"/>
<path d="M0 0 C0.63282394 0.26398087 1.26564789 0.52796173 1.91764832 0.79994202 C3.92207715 1.63930598 5.91980449 2.49350307 7.91796875 3.34765625 C9.2789113 3.91823826 10.64023622 4.48790913 12.00195312 5.05664062 C21.92149839 9.22618589 21.92149839 9.22618589 23.10546875 10.41015625 C23.32158074 11.81751055 23.47679245 13.23431944 23.60546875 14.65234375 C23.68796875 15.55597656 23.77046875 16.45960938 23.85546875 17.390625 C23.93796875 18.34582031 24.02046875 19.30101562 24.10546875 20.28515625 C24.18796875 21.17074219 24.27046875 22.05632813 24.35546875 22.96875 C25.89681955 40.28486285 26.26709452 57.54722409 26.23583984 74.92602539 C26.2304714 78.47090926 26.2358237 82.01566678 26.2421875 85.56054688 C26.24622753 92.17796512 26.19189251 98.79335381 26.10546875 105.41015625 C26.09356506 106.81592422 26.09356506 106.81592422 26.0814209 108.25009155 C26.05170659 110.7581682 25.98806571 113.26255008 25.91015625 115.76953125 C25.90231613 116.83694298 25.90231613 116.83694298 25.89431763 117.92591858 C25.72954987 121.72377162 25.14216812 123.36405234 22.74560547 126.37475586 C18.92955376 129.58773448 14.96547069 131.97044258 9.85546875 131.78515625 C3.05715022 130.22847508 -3.61808928 127.41160965 -9.89453125 124.41015625 C-11.3550592 123.79185188 -11.3550592 123.79185188 -12.84509277 123.16105652 C-21.13654046 119.15368585 -21.13654046 119.15368585 -23.14482117 114.53424072 C-23.76331648 110.9718116 -24.00634265 107.55144926 -24.125 103.9375 C-24.20761314 102.60529157 -24.29430312 101.27333047 -24.3848114 99.94163513 C-24.64464929 95.76620282 -24.77983213 91.59173956 -24.89453125 87.41015625 C-24.93580139 86.09573547 -24.97707153 84.7813147 -25.01959229 83.42706299 C-25.2359329 75.5897047 -25.28079716 67.76103209 -25.23071289 59.92114258 C-25.20689043 55.94917726 -25.21021947 51.97787942 -25.21679688 48.00585938 C-25.2125439 40.4704536 -25.07751756 32.94307117 -24.89453125 25.41015625 C-24.86912262 23.68451447 -24.86912262 23.68451447 -24.84320068 21.92401123 C-24.781821 18.71557022 -24.65291183 15.51771953 -24.5 12.3125 C-24.48979324 11.37491348 -24.47958649 10.43732697 -24.46907043 9.47132874 C-24.2922476 6.77344695 -24.05392899 4.85610406 -22.89453125 2.41015625 C-15.40222234 -3.66543771 -8.5684392 -3.61304181 0 0 Z " fill="#FDFDFD" transform="translate(644.89453125,744.58984375)"/>
<path d="M0 0 C1.34287489 0.51068905 2.69518448 0.99723598 4.05566406 1.45898438 C8.55147483 2.98801646 12.51478899 4.64071005 16.26708984 7.64208984 C18.23113023 12.29066449 18.2461538 16.64361059 18.26708984 21.64208984 C18.46431392 23.8816211 18.67516328 26.11999597 18.89990234 28.35693359 C20.09697829 44.82475426 20.47729027 61.25799497 20.51708984 77.76708984 C20.52226624 78.74185272 20.52744263 79.7166156 20.53277588 80.72091675 C20.57764501 91.42468394 20.33528226 102.08660743 19.53662109 112.76318359 C19.4526004 114.14263657 19.4526004 114.14263657 19.36688232 115.54995728 C18.9955113 119.83409145 18.66192238 122.10053228 16.07739258 125.64550781 C12.39537028 128.64674052 8.72094915 130.07744826 3.95458984 129.89208984 C1.72802734 129.41162109 1.72802734 129.41162109 -0.73291016 128.64208984 C-1.71001953 128.33658203 -2.68712891 128.03107422 -3.69384766 127.71630859 C-11.62603969 124.92179542 -22.61065605 120.76434395 -28.73291016 114.64208984 C-31.6005056 94.53829008 -30.95242652 73.73142302 -30.97922897 53.4790802 C-30.98286709 51.47827484 -30.99056997 49.47747822 -30.99832153 47.47668457 C-31.03771073 34.81014588 -31.00406452 22.15158218 -30.01416016 9.51708984 C-29.95971741 8.66190262 -29.90527466 7.80671539 -29.84918213 6.9256134 C-29.47279717 2.94535526 -29.26788668 1.2034056 -26.43701172 -1.7668457 C-17.52475325 -6.86399791 -8.83937544 -3.43837639 0 0 Z " fill="#FDFDFD" transform="translate(878.73291015625,746.35791015625)"/>
<path d="M0 0 C20.13992355 -0.83787047 40.67637688 3.85567742 56.1875 17.3125 C64.14498844 24.78883798 69.63901166 32.51456413 71.625 43.4375 C69.09449143 57.86139883 54.68292659 71.08400212 43.21435547 79.27539062 C26.40896446 90.93202006 26.40896446 90.93202006 17 90 C1.54778446 87.03417153 -11.87326372 77.01472931 -20.953125 64.45703125 C-22.68562 60.39083964 -21.33017319 56.93239975 -19.89599609 52.88232422 C-19.44305176 51.7842041 -18.99010742 50.68608398 -18.5234375 49.5546875 C-18.27718628 48.95089264 -18.03093506 48.34709778 -17.77722168 47.7250061 C-17.25212923 46.43768069 -16.7245817 45.15135434 -16.19476318 43.8659668 C-11.0529932 31.37810015 -6.2657263 18.8170812 -2 6 C-1.41605469 4.25203125 -1.41605469 4.25203125 -0.8203125 2.46875 C-0.41425781 1.24671875 -0.41425781 1.24671875 0 0 Z " fill="#2E2E2E" transform="translate(1262,570)"/>
<path d="M0 0 C5.445 0.495 5.445 0.495 11 1 C12.07892691 5.31570765 12.16145968 9.28956872 12.16796875 13.69921875 C12.1721582 14.55825302 12.17634766 15.41728729 12.18066406 16.30235291 C12.19047092 19.09744814 12.19044786 21.89239033 12.1875 24.6875 C12.18722809 25.63961365 12.18695618 26.59172729 12.18667603 27.57269287 C12.16130847 46.82809077 10.84984255 65.60449367 8.42578125 84.7109375 C8.21918884 86.35098755 8.21918884 86.35098755 8.00842285 88.02416992 C7.67335382 90.68291721 7.33719834 93.34152207 7 96 C0.17296146 96.57900436 -6.65490312 97.1474242 -13.48339844 97.70898438 C-15.79934969 97.90064043 -18.11511225 98.0945925 -20.43066406 98.29101562 C-33.31249528 99.38213011 -46.0654852 100.35169376 -59 100 C-58.09513629 95.99954992 -56.4140502 92.60419429 -54.5 89 C-54.11690674 88.27796387 -53.73381348 87.55592773 -53.33911133 86.81201172 C-44.081334 69.69293058 -33.49264722 53.22056881 -23.05078125 36.80859375 C-19.35508555 30.9971834 -15.70987005 25.1543164 -12.0625 19.3125 C-11.12156494 17.80574707 -11.12156494 17.80574707 -10.16162109 16.26855469 C-8.98275634 14.38046712 -7.80403724 12.49228861 -6.62548828 10.60400391 C-4.41847555 7.06840796 -2.2093564 3.53413178 0 0 Z " fill="#FCFCFC" transform="translate(409,681)"/>
<path d="M0 0 C4.22951768 1.24881429 8.45854655 2.49927648 12.6875 3.75 C13.86634766 4.09804688 15.04519531 4.44609375 16.25976562 4.8046875 C24.18958925 7.15104627 32.1011712 9.55133836 40 12 C38.07466026 18.50562166 35.50558271 24.27928436 32.1875 30.1875 C31.47388306 31.46911011 31.47388306 31.46911011 30.74584961 32.77661133 C21.84585259 48.54718294 11.82292128 63.59361821 1.22558594 78.265625 C0.01740511 79.97536934 -1.13242988 81.71366909 -2.2734375 83.46875 C-2.84320312 84.3040625 -3.41296875 85.139375 -4 86 C-4.33 86 -4.66 86 -5 86 C-4.56986242 75.76725342 -3.99663463 65.57474025 -3.0625 55.375 C-1.40190035 36.96318028 -0.80698162 18.46456978 0 0 Z " fill="#FCFCFC" transform="translate(1446,748)"/>
</svg>
