<svg version="1.1" id="Layer_1" xmlns="http://www.w3.org/2000/svg" xmlns:xlink="http://www.w3.org/1999/xlink" x="0px" y="0px"
	 width="100%" viewBox="0 0 512 512" enable-background="new 0 0 512 512" xml:space="preserve">
<path fill="#1A1A1A" opacity="1.000000" stroke="none" 
	d="
M0.999992,482.000000 
	C1.000000,332.309265 1.000000,182.618515 1.331460,32.371220 
	C2.218867,31.033342 2.924939,30.319033 3.308137,29.460594 
	C8.655829,17.480707 16.839296,8.414378 29.353733,3.634693 
	C30.416254,3.228880 31.126240,1.900038 32.000000,1.000000 
	C181.690750,1.000000 331.381500,1.000000 481.622253,1.337624 
	C482.898621,2.313238 483.520508,3.220016 484.366943,3.548842 
	C496.794342,8.376699 505.429169,16.952600 510.360748,29.347851 
	C510.784637,30.413269 512.099182,31.124338 513.000000,32.000000 
	C513.000000,181.690750 513.000000,331.381500 512.662354,481.622223 
	C511.623932,483.051514 510.678162,483.828247 510.260406,484.826080 
	C506.165009,494.607697 499.944611,502.436768 490.384674,507.456451 
	C487.433258,509.006165 484.786346,511.135864 482.000000,513.000000 
	C332.309265,513.000000 182.618515,513.000000 32.378029,512.662720 
	C31.252043,511.761810 30.775562,510.938263 30.084747,510.673126 
	C17.139013,505.704315 8.459037,496.477417 3.030995,483.907745 
	C2.693149,483.125366 1.692341,482.629303 0.999992,482.000000 
M217.895218,411.983337 
	C221.258774,411.938110 224.622345,411.892883 228.913712,412.001373 
	C235.973343,411.934601 243.032990,411.867859 250.927917,411.945648 
	C256.835876,410.484406 263.186066,409.954071 268.572571,407.395142 
	C288.225769,398.058624 297.668671,381.877258 297.764282,360.279297 
	C297.886719,332.622955 297.793243,304.965668 297.792786,277.308807 
	C297.792755,275.608459 297.792816,273.908142 297.792816,270.839386 
	C300.960266,274.809296 303.125519,277.508301 305.275146,280.219696 
	C323.061768,302.654541 340.719604,325.193115 358.682678,347.485748 
	C367.791626,358.790222 382.147156,362.483948 395.597870,357.731689 
	C408.787018,353.071838 417.788422,340.949097 417.812469,326.988342 
	C417.913391,268.342621 418.074493,209.695648 417.785400,151.051254 
	C417.646851,122.947899 396.573273,99.665062 369.177887,96.303764 
	C366.528931,96.292519 363.879974,96.281273 360.274841,96.128555 
	C353.970337,96.186256 347.665802,96.243958 340.393311,96.162720 
	C335.656769,96.216011 330.920258,96.269302 325.237946,96.153687 
	C317.826080,96.213142 310.414185,96.272598 302.079498,96.156883 
	C290.388367,96.219429 278.697235,96.281975 266.082458,96.167923 
	C254.390411,96.230255 242.698364,96.292587 230.083328,96.175186 
	C222.721008,96.237617 215.358673,96.300041 207.075470,96.181442 
	C200.051376,96.244843 193.027283,96.308235 185.081345,96.188774 
	C176.389587,96.251366 167.697845,96.313965 158.099365,96.191498 
	C149.289719,97.456955 140.085968,97.511253 131.747498,100.224655 
	C110.379395,107.177971 95.497513,129.500397 96.332932,151.895432 
	C96.402924,159.592026 96.472916,167.288605 96.312950,175.899628 
	C96.381844,182.281799 96.450745,188.663956 96.301491,195.953247 
	C96.366982,202.958115 96.432472,209.962997 96.289917,217.889282 
	C96.347534,228.590942 96.405144,239.292587 96.252296,250.785675 
	C96.312248,263.525757 96.372200,276.265869 96.239128,289.923615 
	C96.298943,301.953125 96.358757,313.982635 96.228775,326.929230 
	C96.317764,337.623993 96.406761,348.318726 96.343208,359.816315 
	C96.985016,368.796295 98.772934,377.426605 104.145325,385.676483 
	C108.985710,390.836243 113.826096,395.996002 119.030785,401.760742 
	C124.689613,404.445404 130.348434,407.130035 136.751755,410.096619 
	C144.501389,410.675873 152.251007,411.255127 160.928009,411.978821 
	C175.613770,411.931458 190.299530,411.884094 205.898224,411.987366 
	C209.594971,411.936188 213.291733,411.885010 217.895218,411.983337 
z"/>
<path fill="#000000" opacity="1.000000" stroke="none" 
	d="
M482.468658,513.000000 
	C484.786346,511.135864 487.433258,509.006165 490.384674,507.456451 
	C499.944611,502.436768 506.165009,494.607697 510.260406,484.826080 
	C510.678162,483.828247 511.623932,483.051514 512.662354,482.086121 
	C513.000000,492.259857 513.000000,502.519684 513.000000,513.000000 
	C502.980194,513.000000 492.958740,513.000000 482.468658,513.000000 
z"/>
<path fill="#000000" opacity="1.000000" stroke="none" 
	d="
M0.999992,482.468689 
	C1.692341,482.629303 2.693149,483.125366 3.030995,483.907745 
	C8.459037,496.477417 17.139013,505.704315 30.084747,510.673126 
	C30.775562,510.938263 31.252043,511.761810 31.914143,512.662720 
	C21.740145,513.000000 11.480290,513.000000 1.000000,513.000000 
	C1.000000,502.980194 1.000000,492.958740 0.999992,482.468689 
z"/>
<path fill="#000000" opacity="1.000000" stroke="none" 
	d="
M513.000000,31.531345 
	C512.099182,31.124338 510.784637,30.413269 510.360748,29.347851 
	C505.429169,16.952600 496.794342,8.376699 484.366943,3.548842 
	C483.520508,3.220016 482.898621,2.313238 482.086121,1.337624 
	C492.259857,1.000000 502.519684,1.000000 513.000000,1.000000 
	C513.000000,11.019819 513.000000,21.041252 513.000000,31.531345 
z"/>
<path fill="#000000" opacity="1.000000" stroke="none" 
	d="
M31.531342,1.000000 
	C31.126240,1.900038 30.416254,3.228880 29.353733,3.634693 
	C16.839296,8.414378 8.655829,17.480707 3.308137,29.460594 
	C2.924939,30.319033 2.218867,31.033342 1.331460,31.907333 
	C1.000000,21.740147 1.000000,11.480293 1.000000,1.000000 
	C11.019819,1.000000 21.041252,1.000000 31.531342,1.000000 
z"/>
<path fill="#B8FEB2" opacity="1.000000" stroke="none" 
	d="
M369.718323,96.726486 
	C396.573273,99.665062 417.646851,122.947899 417.785400,151.051254 
	C418.074493,209.695648 417.913391,268.342621 417.812469,326.988342 
	C417.788422,340.949097 408.787018,353.071838 395.597870,357.731689 
	C382.147156,362.483948 367.791626,358.790222 358.682678,347.485748 
	C340.719604,325.193115 323.061768,302.654541 305.275146,280.219696 
	C303.125519,277.508301 300.960266,274.809296 297.792816,270.839386 
	C297.792816,273.908142 297.792755,275.608459 297.792786,277.308807 
	C297.793243,304.965668 297.886719,332.622955 297.764282,360.279297 
	C297.668671,381.877258 288.225769,398.058624 268.572571,407.395142 
	C263.186066,409.954071 256.835876,410.484406 250.721115,411.593445 
	C251.346939,408.833862 252.854492,406.438995 252.899506,404.016968 
	C253.140106,391.074402 253.015427,378.125061 253.013077,364.692871 
	C253.008942,322.076721 252.998352,279.945770 253.037033,237.814850 
	C253.039154,235.511444 253.191010,233.146927 253.716766,230.915375 
	C256.843658,217.643234 265.495453,209.390213 278.402405,206.336746 
	C291.494598,203.239456 303.246613,206.629700 311.943390,217.387512 
	C325.853485,234.594193 339.475281,252.033875 353.224731,269.370453 
	C359.560822,277.359619 365.910492,285.337982 372.656403,293.827667 
	C372.908813,292.479553 373.070923,292.018402 373.070648,291.557343 
	C373.042480,242.100067 373.002136,192.642776 373.040710,142.706955 
	C373.039642,130.151688 372.960358,118.074974 372.894165,105.635033 
	C371.840302,103.263771 370.683411,101.295982 369.756531,99.225243 
	C369.443817,98.526611 369.714355,97.566887 369.718323,96.726486 
z"/>
<path fill="#23FFF0" opacity="1.000000" stroke="none" 
	d="
M96.519638,195.046127 
	C96.450745,188.663956 96.381844,182.281799 96.799644,175.394196 
	C98.641708,173.976730 100.104294,173.189606 101.335556,172.132950 
	C111.546089,163.370316 121.692703,154.533218 131.899475,145.766159 
	C147.773727,132.131088 163.749359,118.612640 179.504669,104.841866 
	C182.131699,102.545738 183.859741,99.221039 186.003189,96.371635 
	C193.027283,96.308235 200.051376,96.244843 207.509277,96.610764 
	C206.583664,98.836212 205.486176,100.933731 203.822388,102.379555 
	C192.995483,111.788109 181.982101,120.982338 171.174240,130.412308 
	C167.882294,133.284576 165.045593,136.678619 161.541000,139.905975 
	C157.925919,139.991379 154.765701,139.900986 151.615479,140.039001 
	C144.870544,140.334518 140.796173,144.760010 140.783157,151.552139 
	C140.777130,154.700867 140.633698,157.849335 140.217682,161.026627 
	C138.160477,162.004135 136.214310,162.691452 134.751633,163.943604 
	C124.205711,172.971680 113.807396,182.172562 103.233505,191.167267 
	C101.296974,192.814575 98.772644,193.770859 96.519638,195.046127 
z"/>
<path fill="#1CFFF3" opacity="1.000000" stroke="none" 
	d="
M185.542267,96.280205 
	C183.859741,99.221039 182.131699,102.545738 179.504669,104.841866 
	C163.749359,118.612640 147.773727,132.131088 131.899475,145.766159 
	C121.692703,154.533218 111.546089,163.370316 101.335556,172.132950 
	C100.104294,173.189606 98.641708,173.976730 96.914627,174.936981 
	C96.472916,167.288605 96.402924,159.592026 96.827629,151.389999 
	C99.403084,149.565552 101.680382,148.476425 103.533867,146.891602 
	C120.145279,132.688080 136.737610,118.460701 153.178894,104.061470 
	C155.547791,101.986816 157.084351,98.961784 159.006088,96.376556 
	C167.697845,96.313965 176.389587,96.251366 185.542267,96.280205 
z"/>
<path fill="#39F9E1" opacity="1.000000" stroke="none" 
	d="
M96.432159,289.005951 
	C96.372200,276.265869 96.312248,263.525757 96.758026,250.375748 
	C99.685455,248.632385 102.413971,247.659134 104.475624,245.903015 
	C113.308235,238.379440 121.835312,230.495529 130.714127,223.028793 
	C133.634552,220.572861 137.280289,218.979370 140.693573,217.451324 
	C140.736526,230.276321 140.680237,242.641510 140.285736,255.032379 
	C138.927780,255.570679 137.755829,255.904495 136.911591,256.623260 
	C127.429794,264.695984 118.101776,272.953156 108.501396,280.880951 
	C104.779694,283.954254 100.472572,286.318604 96.432159,289.005951 
z"/>
<path fill="#46FADD" opacity="1.000000" stroke="none" 
	d="
M96.335640,289.464783 
	C100.472572,286.318604 104.779694,283.954254 108.501396,280.880951 
	C118.101776,272.953156 127.429794,264.695984 136.911591,256.623260 
	C137.755829,255.904495 138.927780,255.570679 140.377090,255.492310 
	C140.749359,267.955048 140.692062,279.983521 140.294830,292.037231 
	C138.217377,293.001556 136.243668,293.666199 134.781113,294.924805 
	C126.089523,302.404388 117.637093,310.165802 108.847160,317.525391 
	C105.019203,320.730408 100.580116,323.205536 96.418564,326.012146 
	C96.358757,313.982635 96.298943,301.953125 96.335640,289.464783 
z"/>
<path fill="#3AFFE7" opacity="1.000000" stroke="none" 
	d="
M267.006104,96.344528 
	C278.697235,96.281975 290.388367,96.219429 302.513489,96.583954 
	C301.854309,98.617905 301.032288,100.529709 299.623871,101.781952 
	C290.838013,109.593399 281.816284,117.141167 273.086792,125.013733 
	C267.856537,129.730576 263.015259,134.878754 257.535461,139.905121 
	C245.380569,139.929169 233.689438,139.881149 222.076553,139.509125 
	C223.284943,137.775024 224.235886,136.160797 225.573318,134.986923 
	C237.023346,124.937157 248.624603,115.058037 259.983307,104.907089 
	C262.702942,102.476654 264.684875,99.220772 267.006104,96.344528 
z"/>
<path fill="#2FFFEB" opacity="1.000000" stroke="none" 
	d="
M266.544281,96.256226 
	C264.684875,99.220772 262.702942,102.476654 259.983307,104.907089 
	C248.624603,115.058037 237.023346,124.937157 225.573318,134.986923 
	C224.235886,136.160797 223.284943,137.775024 221.612885,139.581024 
	C209.380600,139.929184 197.690231,139.881424 186.077972,139.509644 
	C187.638199,137.423477 188.919327,135.430405 190.635223,133.936813 
	C201.499283,124.480415 212.561234,115.248856 223.322098,105.678009 
	C226.295441,103.033470 228.466934,99.487366 231.006317,96.354919 
	C242.698364,96.292587 254.390411,96.230255 266.544281,96.256226 
z"/>
<path fill="#51FCDA" opacity="1.000000" stroke="none" 
	d="
M96.323669,326.470703 
	C100.580116,323.205536 105.019203,320.730408 108.847160,317.525391 
	C117.637093,310.165802 126.089523,302.404388 134.781113,294.924805 
	C136.243668,293.666199 138.217377,293.001556 140.384949,292.496796 
	C140.758072,303.625427 140.701141,314.319733 140.287170,325.018036 
	C138.708466,325.449921 137.228119,325.572510 136.305801,326.353821 
	C128.587311,332.892059 121.074310,339.675507 113.289253,346.131714 
	C107.862617,350.632050 102.105331,354.733734 96.495750,359.013489 
	C96.406761,348.318726 96.317764,337.623993 96.323669,326.470703 
z"/>
<path fill="#2FFFEB" opacity="1.000000" stroke="none" 
	d="
M140.594345,216.991501 
	C137.280289,218.979370 133.634552,220.572861 130.714127,223.028793 
	C121.835312,230.495529 113.308235,238.379440 104.475624,245.903015 
	C102.413971,247.659134 99.685455,248.632385 96.863258,249.980042 
	C96.405144,239.292587 96.347534,228.590942 96.790878,217.421936 
	C98.740883,216.257614 100.420319,215.830521 101.602776,214.821213 
	C111.672302,206.226151 121.561333,197.417282 131.721085,188.931885 
	C134.266434,186.806015 137.595047,185.617981 140.662109,184.458389 
	C140.705154,195.609070 140.649750,206.300293 140.594345,216.991501 
z"/>
<path fill="#79FECC" opacity="1.000000" stroke="none" 
	d="
M204.985291,411.836761 
	C190.299530,411.884094 175.613770,411.931458 160.541748,411.582153 
	C161.049408,410.011993 161.772507,408.641418 162.863708,407.695465 
	C173.609650,398.379913 184.507278,389.237183 195.156052,379.812866 
	C198.744904,376.636688 201.746216,372.796661 205.480438,369.215546 
	C211.276123,369.200500 216.607437,369.229980 221.929047,369.619293 
	C219.312927,376.252563 216.656509,382.505737 214.112915,388.804504 
	C211.020691,396.461853 208.023560,404.157623 204.985291,411.836761 
z"/>
<path fill="#5AFDD8" opacity="1.000000" stroke="none" 
	d="
M96.419479,359.414917 
	C102.105331,354.733734 107.862617,350.632050 113.289253,346.131714 
	C121.074310,339.675507 128.587311,332.892059 136.305801,326.353821 
	C137.228119,325.572510 138.708466,325.449921 140.376633,325.477478 
	C140.765625,335.628876 140.708130,345.324829 140.292633,355.023987 
	C138.468094,355.674347 136.792664,356.056702 135.573929,357.018036 
	C131.807510,359.988953 128.143784,363.100891 124.570389,366.303375 
	C117.675133,372.482941 110.869034,378.761993 104.025986,384.999817 
	C98.772934,377.426605 96.985016,368.796295 96.419479,359.414917 
z"/>
<path fill="#15FDF4" opacity="1.000000" stroke="none" 
	d="
M158.552734,96.284027 
	C157.084351,98.961784 155.547791,101.986816 153.178894,104.061470 
	C136.737610,118.460701 120.145279,132.688080 103.533867,146.891602 
	C101.680382,148.476425 99.403084,149.565552 96.950279,150.934143 
	C95.497513,129.500397 110.379395,107.177971 131.747498,100.224655 
	C140.085968,97.511253 149.289719,97.456955 158.552734,96.284027 
z"/>
<path fill="#42FFE4" opacity="1.000000" stroke="none" 
	d="
M257.999176,139.833069 
	C263.015259,134.878754 267.856537,129.730576 273.086792,125.013733 
	C281.816284,117.141167 290.838013,109.593399 299.623871,101.781952 
	C301.032288,100.529709 301.854309,98.617905 302.974884,96.671532 
	C310.414185,96.272598 317.826080,96.213142 325.627380,96.632965 
	C325.222900,98.745972 324.536255,100.442734 323.618317,102.003487 
	C315.643860,115.562691 301.953186,123.313942 291.113129,133.965088 
	C289.266083,135.779922 287.693848,137.874451 285.530945,139.909088 
	C276.044525,139.929977 267.021851,139.881531 257.999176,139.833069 
z"/>
<path fill="#72FFD0" opacity="1.000000" stroke="none" 
	d="
M205.016083,369.260071 
	C201.746216,372.796661 198.744904,376.636688 195.156052,379.812866 
	C184.507278,389.237183 173.609650,398.379913 162.863708,407.695465 
	C161.772507,408.641418 161.049408,410.011993 160.078064,411.509949 
	C152.251007,411.255127 144.501389,410.675873 136.456177,409.632721 
	C137.287582,407.765594 138.237183,406.159821 139.570419,404.992096 
	C148.006271,397.603210 156.623077,390.418732 164.983139,382.946381 
	C169.850189,378.596222 174.350723,373.836060 179.481628,369.215515 
	C188.303421,369.200500 196.659744,369.230286 205.016083,369.260071 
z"/>
<path fill="#46FADD" opacity="1.000000" stroke="none" 
	d="
M285.994690,139.839767 
	C287.693848,137.874451 289.266083,135.779922 291.113129,133.965088 
	C301.953186,123.313942 315.643860,115.562691 323.618317,102.003487 
	C324.536255,100.442734 325.222900,98.745972 326.100250,96.717422 
	C330.920258,96.269302 335.656769,96.216011 340.792267,96.669159 
	C339.677277,101.354187 338.307678,105.592033 336.620850,109.699615 
	C332.482269,119.777588 328.197449,129.795517 323.508240,139.896790 
	C310.694885,139.917252 298.344788,139.878510 285.994690,139.839767 
z"/>
<path fill="#29FFEE" opacity="1.000000" stroke="none" 
	d="
M230.544830,96.265053 
	C228.466934,99.487366 226.295441,103.033470 223.322098,105.678009 
	C212.561234,115.248856 201.499283,124.480415 190.635223,133.936813 
	C188.919327,135.430405 187.638199,137.423477 185.614197,139.581848 
	C177.381699,139.929962 169.691040,139.881821 162.000397,139.833694 
	C165.045593,136.678619 167.882294,133.284576 171.174240,130.412308 
	C181.982101,120.982338 192.995483,111.788109 203.822388,102.379555 
	C205.486176,100.933731 206.583664,98.836212 207.969711,96.701279 
	C215.358673,96.300041 222.721008,96.237617 230.544830,96.265053 
z"/>
<path fill="#64FED5" opacity="1.000000" stroke="none" 
	d="
M104.085648,385.338135 
	C110.869034,378.761993 117.675133,372.482941 124.570389,366.303375 
	C128.143784,363.100891 131.807510,359.988953 135.573929,357.018036 
	C136.792664,356.056702 138.468094,355.674347 140.381104,355.433777 
	C140.473190,362.055054 143.096893,366.294556 149.143112,368.427551 
	C149.195755,368.556030 149.566879,368.686951 149.566879,368.686951 
	C149.566879,368.686951 149.865616,368.447174 150.222992,368.389893 
	C151.055420,368.396393 151.530472,368.460144 151.994354,368.861633 
	C151.122284,370.519440 150.487961,372.084991 149.365097,373.121155 
	C139.180786,382.518646 128.911148,391.823639 118.666473,401.155731 
	C113.826096,395.996002 108.985710,390.836243 104.085648,385.338135 
z"/>
<path fill="#29FFEE" opacity="1.000000" stroke="none" 
	d="
M140.563675,183.998917 
	C137.595047,185.617981 134.266434,186.806015 131.721085,188.931885 
	C121.561333,197.417282 111.672302,206.226151 101.602776,214.821213 
	C100.420319,215.830521 98.740883,216.257614 96.894897,216.961243 
	C96.432472,209.962997 96.366982,202.958115 96.410568,195.499695 
	C98.772644,193.770859 101.296974,192.814575 103.233505,191.167267 
	C113.807396,182.172562 124.205711,172.971680 134.751633,163.943604 
	C136.214310,162.691452 138.160477,162.004135 140.317215,161.485992 
	C140.688965,169.277405 140.626312,176.638153 140.563675,183.998917 
z"/>
<path fill="#6BFFD2" opacity="1.000000" stroke="none" 
	d="
M118.848633,401.458252 
	C128.911148,391.823639 139.180786,382.518646 149.365097,373.121155 
	C150.487961,372.084991 151.122284,370.519440 152.436188,368.770630 
	C155.607361,368.384979 158.325562,368.428131 161.410248,368.651001 
	C167.523224,368.973938 173.269684,369.117126 179.016159,369.260315 
	C174.350723,373.836060 169.850189,378.596222 164.983139,382.946381 
	C156.623077,390.418732 148.006271,397.603210 139.570419,404.992096 
	C138.237183,406.159821 137.287582,407.765594 136.083939,409.491760 
	C130.348434,407.130035 124.689613,404.445404 118.848633,401.458252 
z"/>
<path fill="#48E1C4" opacity="1.000000" stroke="none" 
	d="
M323.971466,139.837601 
	C328.197449,129.795517 332.482269,119.777588 336.620850,109.699615 
	C338.307678,105.592033 339.677277,101.354187 341.276245,96.738632 
	C347.665802,96.243958 353.970337,96.186256 360.701721,96.654373 
	C358.736084,104.158775 356.402771,111.158348 353.934906,118.110168 
	C351.355713,125.375542 348.647095,132.594971 345.530212,139.897766 
	C338.034058,139.919907 331.002747,139.878754 323.971466,139.837601 
z"/>
<path fill="#6DD7AC" opacity="1.000000" stroke="none" 
	d="
M179.481628,369.215515 
	C173.269684,369.117126 167.523224,368.973938 161.857971,368.529358 
	C190.075729,368.208130 218.212784,368.255707 246.347794,368.039337 
	C248.578079,368.022186 250.794296,366.174835 253.017059,365.178040 
	C253.015427,378.125061 253.140106,391.074402 252.899506,404.016968 
	C252.854492,406.438995 251.346939,408.833862 250.303467,411.521179 
	C243.032990,411.867859 235.973343,411.934601 228.482483,411.555542 
	C232.150604,400.851532 235.965759,390.467896 240.423767,380.368011 
	C245.582382,368.680908 245.685211,368.575928 232.469940,369.210297 
	C228.657562,369.208832 225.298157,369.234131 221.938751,369.259460 
	C216.607437,369.229980 211.276123,369.200500 205.480438,369.215576 
	C196.659744,369.230286 188.303421,369.200500 179.481628,369.215515 
z"/>
<path fill="#7AF4C2" opacity="1.000000" stroke="none" 
	d="
M221.929047,369.619324 
	C225.298157,369.234131 228.657562,369.208832 232.466339,369.566772 
	C229.432907,378.655548 225.866943,387.328979 222.498703,396.078552 
	C220.500839,401.268280 218.814743,406.578033 216.988495,411.833801 
	C213.291733,411.885010 209.594971,411.936188 205.441757,411.912048 
	C208.023560,404.157623 211.020691,396.461853 214.112915,388.804504 
	C216.656509,382.505737 219.312927,376.252563 221.929047,369.619324 
z"/>
<path fill="#78EAB9" opacity="1.000000" stroke="none" 
	d="
M217.441864,411.908569 
	C218.814743,406.578033 220.500839,401.268280 222.498703,396.078552 
	C225.866943,387.328979 229.432907,378.655548 232.919312,369.593567 
	C245.685211,368.575928 245.582382,368.680908 240.423767,380.368011 
	C235.965759,390.467896 232.150604,400.851532 228.018585,411.478699 
	C224.622345,411.892883 221.258774,411.938110 217.441864,411.908569 
z"/>
<path fill="#40D3BA" opacity="1.000000" stroke="none" 
	d="
M345.995056,139.834488 
	C348.647095,132.594971 351.355713,125.375542 353.934906,118.110168 
	C356.402771,111.158348 358.736084,104.158775 361.179810,96.725113 
	C363.879974,96.281273 366.528931,96.292519 369.448120,96.515121 
	C369.714355,97.566887 369.443817,98.526611 369.756531,99.225243 
	C370.683411,101.295982 371.840302,103.263771 372.565613,105.717453 
	C369.317017,111.105469 366.052765,115.877594 363.596008,121.034431 
	C360.692139,127.129784 358.485718,133.557419 355.527527,139.904556 
	C352.050446,139.923569 349.022766,139.879028 345.995056,139.834488 
z"/>
<path fill="#1A1A1A" opacity="1.000000" stroke="none" 
	d="
M345.530212,139.897766 
	C349.022766,139.879028 352.050446,139.923569 355.989380,139.975037 
	C359.694641,139.985886 362.570892,139.576126 365.259460,140.110535 
	C367.925537,140.640472 370.402588,142.121567 372.962524,143.185501 
	C373.002136,192.642776 373.042480,242.100067 373.070648,291.557343 
	C373.070923,292.018402 372.908813,292.479553 372.656403,293.827667 
	C365.910492,285.337982 359.560822,277.359619 353.224731,269.370453 
	C339.475281,252.033875 325.853485,234.594193 311.943390,217.387512 
	C303.246613,206.629700 291.494598,203.239456 278.402405,206.336746 
	C265.495453,209.390213 256.843658,217.643234 253.716766,230.915375 
	C253.191010,233.146927 253.039154,235.511444 253.037033,237.814850 
	C252.998352,279.945770 253.008942,322.076721 253.013077,364.692871 
	C250.794296,366.174835 248.578079,368.022186 246.347794,368.039337 
	C218.212784,368.255707 190.075729,368.208130 161.491486,368.349609 
	C158.325562,368.428131 155.607361,368.384979 152.447342,368.432861 
	C151.530472,368.460144 151.055420,368.396393 150.043579,368.282349 
	C149.506760,368.232086 149.090469,368.299042 149.090469,368.299042 
	C143.096893,366.294556 140.473190,362.055054 140.739105,355.430603 
	C140.708130,345.324829 140.765625,335.628876 140.733673,325.473450 
	C140.701141,314.319733 140.758072,303.625427 140.724884,292.471558 
	C140.692062,279.983521 140.749359,267.955048 140.715302,255.466629 
	C140.680237,242.641510 140.736526,230.276321 140.693573,217.451324 
	C140.649750,206.300293 140.705154,195.609070 140.662109,184.458389 
	C140.626312,176.638153 140.688965,169.277405 140.652069,161.457275 
	C140.633698,157.849335 140.777130,154.700867 140.783157,151.552139 
	C140.796173,144.760010 144.870544,140.334518 151.615479,140.039001 
	C154.765701,139.900986 157.925919,139.991379 161.541000,139.905975 
	C169.691040,139.881821 177.381699,139.929962 185.536102,139.905884 
	C197.690231,139.881424 209.380600,139.929184 221.534637,139.905029 
	C233.689438,139.881149 245.380569,139.929169 257.535461,139.905136 
	C267.021851,139.881531 276.044525,139.929977 285.530945,139.909088 
	C298.344788,139.878510 310.694885,139.917252 323.508240,139.896790 
	C331.002747,139.878754 338.034058,139.919907 345.530212,139.897766 
z"/>
<path fill="#49CBAF" opacity="1.000000" stroke="none" 
	d="
M373.040710,142.706955 
	C370.402588,142.121567 367.925537,140.640472 365.259460,140.110535 
	C362.570892,139.576126 359.694641,139.985886 356.438782,139.911499 
	C358.485718,133.557419 360.692139,127.129784 363.596008,121.034431 
	C366.052765,115.877594 369.317017,111.105469 372.552490,106.080673 
	C372.960358,118.074974 373.039642,130.151688 373.040710,142.706955 
z"/>
<path fill="#6DD7AC" opacity="1.000000" stroke="none" 
	d="
M149.143112,368.427551 
	C149.090469,368.299042 149.506760,368.232086 149.686188,368.339630 
	C149.865616,368.447174 149.566879,368.686951 149.566879,368.686951 
	C149.566879,368.686951 149.195755,368.556030 149.143112,368.427551 
z"/>
</svg>