<svg version="1.1" id="Layer_1" xmlns="http://www.w3.org/2000/svg" xmlns:xlink="http://www.w3.org/1999/xlink" x="0px" y="0px"
	 width="100%" viewBox="0 0 180 180" enable-background="new 0 0 180 180" xml:space="preserve">
<path fill="#000000" opacity="1.000000" stroke="none" 
	d="
M85.000000,181.000000 
	C56.666668,181.000000 28.833336,181.000000 1.000004,181.000000 
	C1.000003,121.000008 1.000003,61.000011 1.000001,1.000012 
	C60.999989,1.000008 120.999977,1.000008 180.999969,1.000004 
	C180.999985,60.999989 180.999985,120.999977 181.000000,180.999985 
	C149.166672,181.000000 117.333336,181.000000 85.000000,181.000000 
M103.038445,60.540134 
	C83.271431,80.312744 63.510406,100.091339 43.728699,119.849243 
	C41.617897,121.957504 39.423103,124.216141 42.178898,127.026123 
	C44.736374,129.633896 47.173840,128.255585 49.450397,125.973526 
	C74.952980,100.409325 100.488190,74.877602 126.059196,49.381855 
	C128.383057,47.064838 129.517609,44.623058 126.942917,42.108555 
	C124.364120,39.590061 122.137634,41.400486 120.119171,43.434532 
	C114.609505,48.986736 109.055008,54.494457 103.038445,60.540134 
M99.627251,118.126854 
	C95.982048,121.779160 92.046455,125.199631 88.846756,129.207596 
	C87.703178,130.640045 88.339760,133.493637 88.163811,135.698578 
	C90.219711,135.557037 93.081520,136.244278 94.208969,135.147934 
	C108.043602,121.695000 121.691788,108.046547 135.144958,94.212112 
	C136.242691,93.083267 135.560959,90.223976 135.706070,88.168762 
	C133.619919,88.222168 131.502853,88.087418 129.463058,88.422806 
	C128.661789,88.554550 128.032516,89.737152 127.326523,90.442802 
	C118.260475,99.504425 109.194725,108.566345 99.627251,118.126854 
z"/>
<path fill="#F5F5F5" opacity="1.000000" stroke="none" 
	d="
M103.278351,60.279968 
	C109.055008,54.494457 114.609505,48.986736 120.119171,43.434532 
	C122.137634,41.400486 124.364120,39.590061 126.942917,42.108555 
	C129.517609,44.623058 128.383057,47.064838 126.059196,49.381855 
	C100.488190,74.877602 74.952980,100.409325 49.450397,125.973526 
	C47.173840,128.255585 44.736374,129.633896 42.178898,127.026123 
	C39.423103,124.216141 41.617897,121.957504 43.728699,119.849243 
	C63.510406,100.091339 83.271431,80.312744 103.278351,60.279968 
z"/>
<path fill="#F4F4F4" opacity="1.000000" stroke="none" 
	d="
M99.878082,117.877525 
	C109.194725,108.566345 118.260475,99.504425 127.326523,90.442802 
	C128.032516,89.737152 128.661789,88.554550 129.463058,88.422806 
	C131.502853,88.087418 133.619919,88.222168 135.706085,88.168762 
	C135.560959,90.223976 136.242691,93.083267 135.144958,94.212112 
	C121.691788,108.046547 108.043602,121.695000 94.208969,135.147934 
	C93.081520,136.244278 90.219711,135.557037 88.163811,135.698578 
	C88.339760,133.493637 87.703178,130.640045 88.846756,129.207596 
	C92.046455,125.199631 95.982048,121.779160 99.878082,117.877525 
z"/>
</svg>